<svg id="Laag_1" data-name="Laag 1" xmlns="http://www.w3.org/2000/svg" viewBox="0 0 1200 1200"><defs><style>.cls-1{fill:#e5e5e5;}.cls-2{fill:#818181;}</style></defs><rect class="cls-1" width="1200" height="1200" rx="86.74"/><path class="cls-2" d="M418.9,947H226.68a37.19,37.19,0,0,1-14.54-2.93,37.58,37.58,0,0,1-16.47-13.58,37.11,37.11,0,0,1-6.37-20.88V228.49A37.19,37.19,0,0,1,192.23,214a37.25,37.25,0,0,1,34.45-22.84H907.79A37.18,37.18,0,0,1,922.33,194a37.69,37.69,0,0,1,16.48,13.59,37.14,37.14,0,0,1,6.36,20.87V417.31a36,36,0,0,0,72,0V228.49a109.34,109.34,0,0,0-109.4-109.4H226.68a109.34,109.34,0,0,0-109.4,109.4v681.1A109.32,109.32,0,0,0,226.68,1019H418.9a36,36,0,1,0,0-72Z"/><path class="cls-2" d="M866.1,816.08a689.59,689.59,0,0,1,65.61-53,623.45,623.45,0,0,1,138.6-74.48,36,36,0,0,0-4-68.54L516.56,480.83a36,36,0,0,0-43.77,43.65L609.9,1071.82a36,36,0,0,0,68.36,4.63h0l0,0c.1-.26,7.33-18.23,22.5-46.61A829.43,829.43,0,0,1,815.29,867.15l207.72,198A36,36,0,0,0,1072.7,1013Z"/></svg>